<svg id="_x31__x2C_5" height="512" viewBox="0 0 24 24" width="512" xmlns="http://www.w3.org/2000/svg"><path d="m20.357 6.25c-.887 0-1.607-.771-1.607-1.719l.025-.204.086-.827-.101-.947c-.01-1.032.711-1.803 1.598-1.803.552 0 1.057.295 1.353.789l.144.24.265.087c.664.22 1.13.892 1.13 1.634s-.466 1.414-1.132 1.634l-.265.087-.144.24c-.295.494-.8.789-1.352.789z" fill="#607d8b"/><path d="m21.5 17.641c-2 0-5.5 2.207-7.5 2.207s-4.25-1.481-4.25-1.481 2.694.483 4.25.483 2-.514 2-1.209c0-1.693-2.972-1.956-4.476-2.178l-5.558-1.078-2.009 6.366c2.275 1.001 6.986 2.936 9.043 2.936 3 0 10.5-3.628 10.5-4.596 0-.967-1-1.45-2-1.45z" fill="#ffcc80"/><path d="m.75 21.25v-8.5c3.23 0 4.735 1.103 4.75 1.114l-2 7.386z" fill="#2196f3"/><path d="m20.357 7c-1.299 0-2.357-1.107-2.357-2.469 0-.359.075-.708.22-1.031-.145-.323-.22-.672-.22-1.031 0-1.362 1.058-2.469 2.357-2.469.823 0 1.57.442 1.996 1.154.963.318 1.647 1.26 1.647 2.346s-.684 2.028-1.646 2.346c-.426.712-1.173 1.154-1.997 1.154zm0-5.5c-.473 0-.857.435-.857.969 0 .214.066.421.191.598.184.26.184.607 0 .867-.125.176-.191.383-.191.597 0 .534.385.969.857.969.338 0 .646-.227.783-.577.101-.254.33-.434.601-.469.433-.057.759-.467.759-.954s-.326-.897-.759-.954c-.271-.036-.5-.215-.601-.469-.137-.35-.445-.577-.783-.577z"/><path d="m9.75 6c-.414 0-.75-.336-.75-.75v-.75c0-.965.785-1.75 1.75-1.75h8c.414 0 .75.336.75.75s-.336.75-.75.75h-8c-.138 0-.25.112-.25.25v.75c0 .414-.336.75-.75.75z"/><path d="m12.75 6c-.414 0-.75-.336-.75-.75v-1.75c0-.414.336-.75.75-.75s.75.336.75.75v1.75c0 .414-.336.75-.75.75z"/><path d="m3.5 22h-2.75c-.414 0-.75-.336-.75-.75v-8.5c0-.414.336-.75.75-.75 3.506 0 5.138 1.217 5.205 1.269.242.185.349.498.269.792l-2 7.386c-.088.326-.385.553-.724.553zm-2-1.5h1.426l1.698-6.271c-.523-.247-1.545-.615-3.124-.707z"/><path d="m13 24c-2.405 0-7.009-2-9.539-3.191-.375-.177-.536-.624-.359-.999.176-.373.623-.535.998-.359 4.112 1.938 7.356 3.049 8.9 3.049 2.028 0 6.632-2.191 9.045-3.455-.278-.159-.692-.295-1.295-.295-.878 0-1.964.362-3.013.711-1.163.388-2.365.789-3.487.789-2.107 0-4.889-1.002-5.006-1.045-.39-.142-.591-.572-.449-.961.143-.389.575-.589.961-.449.026.01 2.652.955 4.494.955.878 0 1.964-.362 3.013-.711 1.163-.388 2.365-.789 3.487-.789 2.479 0 3.168 1.651 3.196 1.722.141.351-.003.752-.334.935-.302.167-7.455 4.093-10.612 4.093z"/><path d="m16.5 19.84c-.414 0-.75-.336-.75-.75v-.45c0-.591-.421-1.107-1-1.225l-9.631-1.97c-.405-.083-.667-.479-.584-.885s.48-.665.885-.584l9.631 1.97c1.274.26 2.199 1.394 2.199 2.695v.45c0 .413-.336.749-.75.749z"/></svg>